<?xml version="1.0" encoding="UTF-8" standalone="no"?>
<!-- Created with Inkscape (http://www.inkscape.org/) -->

<svg
   xmlns:dc="http://purl.org/dc/elements/1.1/"
   xmlns:cc="http://creativecommons.org/ns#"
   xmlns:rdf="http://www.w3.org/1999/02/22-rdf-syntax-ns#"
   xmlns:svg="http://www.w3.org/2000/svg"
   xmlns="http://www.w3.org/2000/svg"
   xmlns:sodipodi="http://sodipodi.sourceforge.net/DTD/sodipodi-0.dtd"
   xmlns:inkscape="http://www.inkscape.org/namespaces/inkscape"
   width="448.15814mm"
   height="263.12772mm"
   viewBox="0 0 1587.9619 932.34228"
   id="svg4339"
   version="1.1"
   inkscape:version="0.91 r13725"
   sodipodi:docname="Adruillattor.svg">
  <defs
     id="defs4341" />
  <sodipodi:namedview
     id="base"
     pagecolor="#ffffff"
     bordercolor="#666666"
     borderopacity="1.0"
     inkscape:pageopacity="0.0"
     inkscape:pageshadow="2"
     inkscape:zoom="0.37915328"
     inkscape:cx="1077.2948"
     inkscape:cy="478.21206"
     inkscape:document-units="px"
     inkscape:current-layer="layer1"
     showgrid="false"
     fit-margin-top="0"
     fit-margin-left="0"
     fit-margin-right="0"
     fit-margin-bottom="0"
     inkscape:window-width="1366"
     inkscape:window-height="705"
     inkscape:window-x="-8"
     inkscape:window-y="-8"
     inkscape:window-maximized="1"
     showguides="true"
     inkscape:guide-bbox="true" />
  <metadata
     id="metadata4344">
    <rdf:RDF>
      <cc:Work
         rdf:about="">
        <dc:format>image/svg+xml</dc:format>
        <dc:type
           rdf:resource="http://purl.org/dc/dcmitype/StillImage" />
        <dc:title></dc:title>
      </cc:Work>
    </rdf:RDF>
  </metadata>
  <g
     inkscape:label="Calque 1"
     inkscape:groupmode="layer"
     id="layer1"
     transform="translate(625.94919,-380.90203)">
    <g
       id="g4323"
       transform="translate(-171.43463,-142.42261)">
      <path
         sodipodi:nodetypes="cscccsccssccsssssscccsccsscscscsssssssssssscscscssccscccssssssccssccscccscsccccscc"
         inkscape:connector-curvature="0"
         id="path4898-2-4-9"
         d="m 1163.115,1173.1005 c -5.0054,62.6922 11.18,123.3416 58.6467,164.6 10.1399,8.8137 37.1621,17.0566 37.1621,17.0566 1.6331,1.0929 4.5337,3.4053 -1.5156,5.6973 l -32.1387,11.7266 c -3.0413,1.2884 -1.7115,4.5034 -0.293,5.8398 9.7401,9.1763 37.9082,14.1777 37.9082,14.1777 3.8676,1.9444 2.7748,4.9991 -1.2832,5.7305 0,0 -30.3013,2.9082 -37.6113,5.416 -2.6836,0.9207 -5.4031,3.704 0.09,8.5117 11.3831,9.9631 39.3145,19.6875 39.3145,19.6875 6.2523,2.617 3.8207,6.6132 -0.1074,7.5606 -17.977,4.3128 -59.2563,11.6276 -83.2032,-1.9668 -67.3325,-38.2242 -35.6344,-69.8765 -84.3299,-134.9141 -18.6647,-24.9284 -74.8643,-100.8332 -107.97465,-94.4806 -133.9124,25.6927 -245.6474,20.2338 -342.752,-2.5901 -30.4482,-7.1567 -44.1951,10.0046 -45.8574,16.0727 -17.5964,64.2343 -23.8779,90.0007 0.7832,147.8554 5.2681,12.3591 25.9707,31.584 25.9707,31.584 0.9912,1.6968 2.5892,5.0453 -3.8535,4.4629 l -34.0313,-3.5 c -3.2985,-0.1704 -3.5081,3.3011 -2.8164,5.1231 4.7499,12.5104 27.9002,29.3203 27.9002,29.3203 2.6289,3.4392 0.3114,5.7095 -3.6582,4.5937 0,0 -28.5263,-10.6271 -36.1972,-11.5664 -2.8162,-0.3448 -6.478,0.9704 -3.6387,7.6953 5.884,13.9362 26.7559,34.8887 26.7559,34.8887 3.9198,4.4506 1.3985,6.9451 -1.9375,6.9199 -0.4766,0 -0.9695,-0.058 -1.4629,-0.166 -18.0541,-3.9778 -50.1939,-21.7246 -65.7911,-44.418 -43.85529,-63.808 -9.6973,-72.1369 -40.84179,-195.1835 0,0 -24.88171,-96.6219 -43.38861,-113.7949 -29.75761,-27.6128 -58.55745,-31.3697 -87.25385,-22.4996 -149.57596,46.2344 -355.12679937,-41.961 -491.13279,9.4727 -72.86859,27.5568 -159.51473,64.0763 -178.54688,139.6209 -16.04299,63.6797 21.58446,142.7062 115.75586,246.7793 14.55222,16.0823 -0.35301,19.8079 -15.86914,11.961 -36.51566,-18.4672 -81.24769,-43.6763 -97.13224,-57.9487 -57.28493,-51.4711 -116.60393,-116.0299 -118.43413,-193.0201 -1.9401,-81.6113 50.96998,-163.8 112.3652,-217.6034 76.07668,-66.66926 205.4111,-94.18869 285.582031,-102.64447 C 76.021199,927.79624 274.597,880.57994 359.674,927.62679 c 24.4549,13.5234 58.0239,-6.81626 82.7558,-29.76563 18.507,-17.17302 43.3887,-113.79492 43.3887,-113.79492 31.1444,-123.04666 -3.0136,-131.37555 40.8418,-195.18359 15.5972,-22.6934 47.7369,-40.44021 65.791,-44.41797 0.4934,-0.10812 0.9863,-0.16202 1.4629,-0.16602 3.336,-0.0252 5.8573,2.46933 1.9375,6.91993 0,0 -20.8719,20.95249 -26.7559,34.88867 -2.8392,6.72492 0.8226,8.0401 3.6387,7.69531 7.6709,-0.93925 36.1972,-11.56641 36.1972,-11.56641 3.9696,-1.11574 6.2871,1.15455 3.6582,4.59375 0,0 -23.1503,16.80988 -27.9002,29.32032 -0.6917,1.82196 -0.4821,5.29341 2.8164,5.12304 l 34.0313,-3.5 c 6.4427,-0.58238 4.8447,2.76614 3.8535,4.46289 0,0 -20.7026,19.22491 -25.9707,31.58398 -24.6611,57.85479 -18.3796,83.62117 -0.7832,147.85547 1.6623,6.06812 15.4092,23.22936 45.8574,16.07269 97.1046,-22.82387 208.8396,-28.28285 342.752,-2.59015 33.1103,6.35262 89.3099,-69.55214 107.9746,-94.48058 48.6955,-65.03758 16.9974,-96.68993 84.33,-134.91406 23.9469,-13.59444 65.2262,-6.27967 83.2032,-1.9668 3.9281,0.9474 6.3597,4.94356 0.1074,7.56055 0,0 -27.9314,9.72441 -39.3145,19.6875 -5.4931,4.8077 -2.7736,7.59105 -0.09,8.51172 7.31,2.50781 37.6113,5.41601 37.6113,5.41601 4.058,0.73138 5.1508,3.78607 1.2832,5.73047 0,0 -28.1681,5.00141 -37.9082,14.17773 -1.4185,1.33638 -2.7483,4.55141 0.293,5.83984 l 32.1387,11.72657 c 6.0493,2.29199 3.1487,4.60435 1.5156,5.69726 0,0 -27.0222,8.24289 -37.1621,17.05664 -47.4667,41.25844 -63.6521,101.9078 -58.6467,164.59995 0.1544,18.48643 8.907,37.95103 15.8651,42.27695 73.2704,45.55305 90.5244,71.09453 101.3251,86.46682 12.5131,16.25581 -0.878,18.82701 -4.7919,18.84201 l -380.2301,0.9393 0.11656,23.70747 310.58394,0 c 1e-4,0 -0.9188,35.7075 -5.2455,54.1499 -5.3366,35.1625 -36.2577,68.0517 -37.0901,96.9171 z"
         style="fill:none;fill-opacity:1;fill-rule:evenodd;stroke:#ff0000;stroke-width:0.35433072;stroke-linecap:butt;stroke-linejoin:miter;stroke-miterlimit:4;stroke-dasharray:none;stroke-opacity:1" />
      <g
         style="stroke:#ff0000;stroke-opacity:1"
         id="g4140"
         transform="matrix(-0.53717212,-0.8434726,-0.84347273,0.53717213,1347.9677,1663.7468)">
        <path
           sodipodi:nodetypes="cccccccccccccccccccccccsssscscsccsccc"
           inkscape:connector-curvature="0"
           id="path5476"
           d="m 870.8521,1092.8195 18.98104,-38.0967 -93.60803,-126.00933 16.72275,-40.98841 -100.42679,-109.92234 22.13365,-33.27688 -103.53322,-96.67395 13.61321,-36.95382 -94.84776,-74.21932 6.14068,-37.94766 -95.67371,-63.73116 -8.20177,-30.98513 -75.91371,-46.24663 C 328.10993,260.06595 254.43175,199.92181 161.2026,242.43087 l 14.33205,-67.81676 -65.47501,-2.88289 18.86122,-63.91167 -52.974506,-1.04456 23.56412,-44.712381 -51.276581,1.059926 26.386822,-37.240558 -43.09946,8.268711 24.267591,-41.6639433 -40.749014,6.94074428 C -40.645922,8.9123955 36.090885,172.10051 72.11228,239.93173 c 44.6136,84.01103 124.72482,164.64722 141.30297,199.57546 61.78131,130.16612 16.5701,149.32462 121.75806,311.22338 123.58627,190.21628 290.08456,412.34833 458.74242,545.00263 10.60787,8.2156 38.89187,27.9479 50.23092,20.7752 3.50873,-2.2196 -7.20408,-19.4956 -7.20408,-19.4956 L 531.53872,817.46483 550.55789,805.45004 921.4399,1387.8124 c 0,0 23.86772,3.7566 20.72524,-20.4495 -5.56443,-42.862 -16.5349,-72.2846 -21.77562,-109.3143 l 18.22136,-28.5566 z"
           style="fill:none;fill-rule:evenodd;stroke:#ff0000;stroke-width:0.35433075;stroke-linecap:butt;stroke-linejoin:miter;stroke-miterlimit:4;stroke-dasharray:none;stroke-opacity:1" />
        <path
           inkscape:connector-curvature="0"
           id="path5478"
           d="m 205.56501,297.85775 29.88683,-19.03366 49.48751,77.70574 -29.88683,19.03366 z"
           style="fill:none;fill-rule:evenodd;stroke:#ff0000;stroke-width:0.35433075;stroke-linecap:butt;stroke-linejoin:miter;stroke-miterlimit:4;stroke-dasharray:none;stroke-opacity:1"
           sodipodi:nodetypes="ccccc" />
      </g>
      <ellipse
         transform="matrix(-0.27314732,0.96197221,-0.96197221,-0.27314732,0,0)"
         style="fill:none;fill-opacity:1;stroke:#ff0000;stroke-width:0.16550998;stroke-linecap:butt;stroke-linejoin:round;stroke-miterlimit:4;stroke-dasharray:none;stroke-opacity:1"
         id="path6041-4-3"
         cx="1271.3519"
         cy="-1335.9508"
         rx="8.038393"
         ry="7.6038857" />
      <path
         sodipodi:nodetypes="sssccccccccccczccccss"
         style="fill:none;fill-rule:evenodd;stroke:#ff0000;stroke-width:0.35433072;stroke-linecap:butt;stroke-linejoin:miter;stroke-miterlimit:4;stroke-dasharray:none;stroke-opacity:1"
         d="m 301.6303,1260.0462 c 7.4281,-3.1023 4.8904,-18.3303 12.616,-20.5923 9.4711,-2.7731 21.8672,-1.9526 27.3084,16.6418 6.4096,21.904 -16.8796,83.8241 -16.8796,83.8241 l -15.6862,-29.2852 -20.6319,42.2961 -23.3812,-35.2693 -13.7641,34.6103 -26.4234,-35.2582 -28.487,40.526 -28.1471,-43.7831 -40.3125,49.7387 -36.9184,-45.0416 -63.7626,83.6355 c 0,0 -32.3387,33.3014 -106.14305,23.0454 -73.80436,-10.256 -189.65582,-194.7465 -13.23697,-259.2995 l 34.16151,81.7306 19.61532,-8.1988 -34.16151,-81.7305 c 61.1836,-6.1881 76.621,78.0066 95.1572,83.592 38.5661,11.6209 268.0635,23.4177 279.0771,18.818 z"
         id="path6039"
         inkscape:connector-curvature="0" />
      <ellipse
         transform="matrix(-0.27314732,0.96197221,-0.96197221,-0.27314732,0,0)"
         style="fill:none;fill-opacity:1;stroke:#ff0000;stroke-width:0.35433072;stroke-linecap:butt;stroke-linejoin:round;stroke-miterlimit:4;stroke-dasharray:none;stroke-opacity:1"
         id="path6041"
         cx="1321.9116"
         cy="-331.51892"
         rx="17.208929"
         ry="16.278717" />
      <ellipse
         transform="matrix(-0.27314732,0.96197221,-0.96197221,-0.27314732,0,0)"
         style="fill:none;fill-opacity:1;stroke:#ff0000;stroke-width:0.35433072;stroke-linecap:butt;stroke-linejoin:round;stroke-miterlimit:4;stroke-dasharray:none;stroke-opacity:1"
         id="path6041-4"
         cx="1340.261"
         cy="-262.87134"
         rx="17.208929"
         ry="16.278717" />
      <ellipse
         transform="matrix(-0.27314732,0.96197221,-0.96197221,-0.27314732,0,0)"
         style="fill:none;fill-opacity:1;stroke:#ff0000;stroke-width:0.16550998;stroke-linecap:butt;stroke-linejoin:round;stroke-miterlimit:4;stroke-dasharray:none;stroke-opacity:1"
         id="path6041-4-3-8"
         cx="1292.5005"
         cy="-287.26819"
         rx="8.038393"
         ry="7.6038857" />
    </g>
  </g>
</svg>
